<?xml version="1.0" encoding="UTF-8"?>
<svg width="400" height="300" viewBox="0 0 400 300" xmlns="http://www.w3.org/2000/svg">
  <!-- Background -->
  <rect width="400" height="300" fill="#f8fafc" rx="8" ry="8"/>
  
  <!-- Developer Insights Dashboard -->
  <g transform="translate(20, 20)">
    <!-- Header -->
    <rect x="0" y="0" width="360" height="40" fill="#e2e8f0" rx="4" ry="4"/>
    <text x="20" y="25" fill="#1e293b" font-size="14" font-weight="bold">Developer Insights</text>
    
    <!-- Content Grid -->
    <g transform="translate(0, 50)">
      <!-- Performance Reports -->
      <rect x="0" y="0" width="170" height="100" fill="#e2e8f0" rx="4" ry="4"/>
      <text x="10" y="20" fill="#1e293b" font-size="12">Performance Reports</text>
      <line x1="10" y1="40" x2="160" y2="40" stroke="#94a3b8" stroke-width="1"/>
      <g transform="translate(10, 50)">
        <rect x="0" y="0" width="140" height="5" fill="#3b82f6"/>
        <rect x="0" y="10" width="120" height="5" fill="#10b981"/>
        <rect x="0" y="20" width="130" height="5" fill="#3b82f6"/>
        <rect x="0" y="30" width="110" height="5" fill="#10b981"/>
      </g>
      
      <!-- Variant Comparison -->
      <rect x="190" y="0" width="170" height="100" fill="#e2e8f0" rx="4" ry="4"/>
      <text x="200" y="20" fill="#1e293b" font-size="12">Variant Comparison</text>
      <line x1="200" y1="40" x2="350" y2="40" stroke="#94a3b8" stroke-width="1"/>
      <g transform="translate(200, 50)">
        <rect x="0" y="0" width="30" height="40" fill="#3b82f6" opacity="0.7"/>
        <rect x="40" y="0" width="30" height="35" fill="#10b981" opacity="0.7"/>
        <rect x="80" y="0" width="30" height="38" fill="#3b82f6" opacity="0.7"/>
        <rect x="120" y="0" width="30" height="32" fill="#10b981" opacity="0.7"/>
      </g>
      
      <!-- User Feedback -->
      <rect x="0" y="120" width="170" height="100" fill="#e2e8f0" rx="4" ry="4"/>
      <text x="10" y="140" fill="#1e293b" font-size="12">User Feedback</text>
      <line x1="10" y1="160" x2="160" y2="160" stroke="#94a3b8" stroke-width="1"/>
      <g transform="translate(10, 170)">
        <circle cx="20" cy="20" r="15" fill="#3b82f6" opacity="0.8"/>
        <circle cx="60" cy="20" r="12" fill="#10b981" opacity="0.8"/>
        <circle cx="100" cy="20" r="18" fill="#3b82f6" opacity="0.8"/>
        <circle cx="140" cy="20" r="14" fill="#10b981" opacity="0.8"/>
      </g>
      
      <!-- Optimization Suggestions -->
      <rect x="190" y="120" width="170" height="100" fill="#e2e8f0" rx="4" ry="4"/>
      <text x="200" y="140" fill="#1e293b" font-size="12">Optimization Suggestions</text>
      <line x1="200" y1="160" x2="350" y2="160" stroke="#94a3b8" stroke-width="1"/>
      <g transform="translate(200, 170)">
        <rect x="0" y="0" width="140" height="8" fill="#3b82f6" rx="2" ry="2"/>
        <rect x="0" y="15" width="120" height="8" fill="#10b981" rx="2" ry="2"/>
        <rect x="0" y="30" width="130" height="8" fill="#3b82f6" rx="2" ry="2"/>
        <rect x="0" y="45" width="110" height="8" fill="#10b981" rx="2" ry="2"/>
      </g>
    </g>
  </g>
</svg> 